<svg version="1.1" xmlns="http://www.w3.org/2000/svg" xmlns:xlink="http://www.w3.org/1999/xlink" style="" xml:space="preserve" width="41" height="44"><rect id="backgroundrect" width="100%" height="100%" x="0" y="0" fill="none" stroke="none" style="" class=""/>
















<g class="currentLayer" style=""><title>Layer 1</title><g id="svg_1" class="selected" fill="#ffffff" fill-opacity="1">
	<g id="svg_2" fill="#ffffff" fill-opacity="1">
		<g id="svg_3" fill="#ffffff" fill-opacity="1">
			<path d="M6.385370373725891,16.22382080554962 c0.3584192097187042,0.10483940690755844 0.7337173819541931,-0.10143192857503891 0.8378435969352722,-0.4604851007461548 c2.0029635429382324,-6.87914514541626 8.411401748657227,-11.683610916137695 15.584699630737305,-11.683610916137695 c1.1482411623001099,0 2.2896673679351807,0.1196579784154892 3.4013772010803223,0.357072114944458 c-0.02432781644165516,0.9730333685874939 0.3955845534801483,1.6405030488967896 0.6660432815551758,2.069211483001709 c0.07504378259181976,0.11902403086423874 0.1771889179944992,0.2813151180744171 0.18931318819522858,0.3035826086997986 c0,2.424936294555664 -0.49566933512687683,2.819807767868042 -0.49028074741363525,2.821155071258545 c-1.0961780548095703,0 -2.8948514461517334,0.9791350960731506 -3.5711171627044678,2.2416458129882812 c-0.4151577055454254,0.774290144443512 -0.381399929523468,1.593828558921814 0.09398302435874939,2.3078935146331787 c0.32592931389808655,0.48893362283706665 0.6065312623977661,1.0325453281402588 0.8784163594245911,1.5586442947387695 c0.574754536151886,1.1130568981170654 1.2124285697937012,2.347832202911377 2.2139103412628174,2.347832202911377 c0.21165990829467773,0 0.44019871950149536,-0.05547058582305908 0.6876768469810486,-0.17916999757289886 c0.7884747982025146,-0.3942373991012573 1.3537993431091309,-1.515377163887024 1.9001846313476562,-2.59871768951416 c0.24074235558509827,-0.47744327783584595 0.5944069623947144,-1.177957534790039 0.8040065169334412,-1.4004738330841064 c0.6863296627998352,0.09334907680749893 1.0217682123184204,0.7140649557113647 1.475517749786377,1.697320818901062 c0.3340122103691101,0.723574161529541 0.6795939803123474,1.4707629680633545 1.3584747314453125,1.810243010520935 c1.1427732706069946,0.571426272392273 4.900509357452393,-0.027022099122405052 6.977169513702393,-0.9088459610939026 c0.31039756536483765,-0.13186150789260864 0.4760168790817261,-0.4726886749267578 0.3881356120109558,-0.798617959022522 c-1.419333815574646,-5.247438430786133 -5.274460315704346,-9.612339973449707 -10.313567161560059,-11.675529479980469 c-0.3455025255680084,-0.14200471341609955 -0.7411662936210632,0.023693865165114403 -0.8824577927589417,0.3691963851451874 s0.02432781644165516,0.7404531240463257 0.3699095845222473,0.8817446231842041 c4.463717937469482,1.8284690380096436 7.921199798583984,5.611880302429199 9.351390838623047,10.194622993469238 c-2.104395627975464,0.7418002486228943 -4.805179119110107,0.9649505019187927 -5.285951137542725,0.7276156544685364 c-0.25421378016471863,-0.12710689008235931 -0.5098539590835571,-0.6795939803123474 -0.7350645661354065,-1.1671804189682007 c-0.4713415205478668,-1.0210551023483276 -1.1170984506607056,-2.419468641281128 -2.7656843662261963,-2.4925312995910645 c-0.8520282506942749,-0.05142915993928909 -1.3321658372879028,0.9291324019432068 -1.949553370475769,2.153764486312866 c-0.3624606728553772,0.7181063890457153 -0.9094799160957336,1.803428053855896 -1.345637321472168,2.0178616046905518 c-0.250885546207428,-0.05879882350564003 -0.7492491602897644,-1.0237493515014648 -1.046809196472168,-1.5999302864074707 c-0.275213360786438,-0.5328345894813538 -0.5869580507278442,-1.1367508172988892 -0.9548072814941406,-1.6878114938735962 c-0.1994563788175583,-0.29890722036361694 -0.20761847496032715,-0.5829166173934937 -0.027022099122405052,-0.919623076915741 c0.46452656388282776,-0.8669260144233704 1.8582648038864136,-1.527580738067627 2.3788957595825195,-1.527580738067627 c1.222571849822998,0 1.842653751373291,-1.4038021564483643 1.842653751373291,-4.173606872558594 c0,-0.3935241997241974 -0.20215068757534027,-0.7140649557113647 -0.3969316780567169,-1.0244625806808472 c-0.2867037057876587,-0.4537493884563446 -0.5822034478187561,-0.9236645698547363 -0.40707486867904663,-1.7256900072097778 c0.07773806899785995,-0.35635891556739807 -0.1412915140390396,-0.7107366919517517 -0.4949561059474945,-0.7999651432037354 C25.717663884162903,2.9064427614212036 24.26718246936798,2.727272629737854 22.80791199207306,2.727272629737854 C15.03687870502472,2.727272629737854 8.094181180000305,7.932791829109192 5.924884915351868,15.385977864265442 C5.820045590400696,15.744397282600403 6.02695095539093,16.11969482898712 6.385370373725891,16.22382080554962 z" id="svg_4" fill="#ffffff" fill-opacity="1"/>
			<path d="M30.919774174690247,20.66043770313263 c-0.1954149603843689,0.05547058582305908 -0.4625454545021057,0.13257470726966858 -0.5335478186607361,0.13796328008174896 c-0.934520959854126,0 -1.5268675088882446,0.723574161529541 -1.9589835405349731,1.2516541481018066 c-0.16498537361621857,0.20151671767234802 -0.4631793797016144,0.5632641911506653 -0.6532058119773865,0.5687320232391357 c-0.3056429624557495,-0.152861088514328 -0.6268176436424255,-0.22988596558570862 -0.9548072814941406,-0.22988596558570862 c-0.7972708344459534,0 -1.4876419305801392,0.4740357995033264 -1.6418501138687134,1.1285886764526367 c-0.10888083279132843,0.4598511755466461 0.05142915993928909,1.0893630981445312 0.825640082359314,1.4768646955490112 c1.0981591939926147,0.5490795969963074 2.23356294631958,1.116464376449585 2.7386622428894043,1.6215636730194092 c0.34756287932395935,0.34756287932395935 0.9487055540084839,0.5470192432403564 1.6499329805374146,0.5470192432403564 c1.0650352239608765,0 2.4810409545898438,-0.5173028707504272 2.967200994491577,-1.9765756130218506 c0.19200748205184937,-0.574754536151886 0.6512247323989868,-1.0143193006515503 1.0954649448394775,-1.4389863014221191 c0.5152425169944763,-0.49432218074798584 1.0028289556503296,-0.9601958394050598 1.0095646381378174,-1.6290125846862793 c0.004754621535539627,-0.39495059847831726 -0.17037396132946014,-0.772229790687561 -0.5193631649017334,-1.121852993965149 c-0.4753829538822174,-0.4746697247028351 -1.12248694896698,-0.7161252498626709 -1.9245123863220215,-0.7161252498626709 C32.2505122423172,20.28038513660431 31.480977177619934,20.50020706653595 30.919774174690247,20.66043770313263 zM34.111470341682434,22.100058674812317 c-0.03177672252058983,0.13320864737033844 -0.3685624301433563,0.45573049783706665 -0.5923466086387634,0.6700847148895264 c-0.5105671286582947,0.4882203936576843 -1.1455469131469727,1.0961780548095703 -1.4430276155471802,1.988779067993164 c-0.3340122103691101,1.0007686614990234 -1.461966872215271,1.0514845848083496 -1.684483289718628,1.0514845848083496 c-0.3942373991012573,0 -0.641715407371521,-0.1041262224316597 -0.6931446194648743,-0.15008756518363953 c-0.6613678932189941,-0.6613678932189941 -1.8413065671920776,-1.2516541481018066 -3.09097957611084,-1.8757774829864502 c-0.0026942859403789043,-0.0013471429701894522 -0.004754621535539627,-0.00206033606082201 -0.007448907475918531,-0.003407479031011462 c0.12710689008235931,-0.05206311121582985 0.3624606728553772,-0.05547058582305908 0.5693659782409668,0.047308485954999924 c0.2183956354856491,0.10951478779315948 0.44289302825927734,0.16498537361621857 0.6660432815551758,0.16498537361621857 c0.7485359907150269,0 1.2212246656417847,-0.577448844909668 1.6378086805343628,-1.086668848991394 c0.30500897765159607,-0.3712567090988159 0.6194479465484619,-0.7559848427772522 0.912887454032898,-0.7559848427772522 c0.24002915620803833,0 0.5193631649017334,-0.07979840040206909 0.904804527759552,-0.1900263875722885 c0.5119143128395081,-0.14604613184928894 1.148875117301941,-0.3279896676540375 1.7290974855422974,-0.3279896676540375 c0.43615731596946716,0 0.7526566386222839,0.10483940690755844 0.9676448106765747,0.3198275566101074 C34.0816775560379,22.047362446784973 34.10743057727814,22.100058674812317 34.111470341682434,22.100058674812317 z" id="svg_5" fill="#ffffff" fill-opacity="1"/>
			<path d="M40.221715092659,17.875813603401184 c-0.05142915993928909,-0.37054353952407837 -0.39764487743377686,-0.6281647682189941 -0.7620866298675537,-0.577448844909668 c-0.3699095845222473,0.05142915993928909 -0.6288779973983765,0.3928902745246887 -0.577448844909668,0.762799859046936 c0.1027790829539299,0.7431474328041077 0.15484218299388885,1.4998455047607422 0.15484218299388885,2.2477474212646484 c0,8.884090423583984 -7.17464542388916,16.122922897338867 -16.03432846069336,16.22776222229004 c-2.4046499729156494,-1.5356636047363281 -4.658420085906982,-3.4169089794158936 -3.6542437076568604,-5.759273529052734 c1.802794098854065,-4.208077907562256 0.12512579560279846,-5.776231288909912 -0.5917127132415771,-6.4470295906066895 l-0.13455578684806824,-0.12782008945941925 c-0.20492419600486755,-0.20421099662780762 -0.43615731596946716,-0.3435214161872864 -0.6397343873977661,-0.46587371826171875 c-0.4949561059474945,-0.2968468964099884 -0.6281647682189941,-0.3766452670097351 -0.3624606728553772,-1.1739161014556885 c0.1758417785167694,-0.5295063853263855 0.4097691476345062,-0.7762712240219116 0.6795939803123474,-1.0623409748077393 c0.6254705190658569,-0.6613678932189941 1.1035476922988892,-1.319249153137207 1.1035476922988892,-3.2316370010375977 c0,-1.1130568981170654 -0.5646113157272339,-2.000903367996216 -1.549214243888855,-2.435713529586792 c-1.116464376449585,-0.4936090111732483 -2.607513666152954,-0.31919360160827637 -3.395909309387207,0.39629772305488586 c-0.4922618269920349,0.44764766097068787 -0.6579604744911194,1.0569524765014648 -0.4537493884563446,1.6702194213867188 c0.4821186661720276,1.443740963935852 -0.6194479465484619,3.5305445194244385 -2.6778030395507812,5.074290752410889 c-0.545038104057312,0.40842199325561523 -0.7073292136192322,0.2210899144411087 -0.8047197461128235,0.10951478779315948 c-0.6038369536399841,-0.6958389282226562 -0.5571624636650085,-2.6751086711883545 -0.0615723542869091,-3.170064926147461 c0.33203110098838806,-0.33203110098838806 0.4307687282562256,-0.7559848427772522 0.2637230157852173,-1.1339772939682007 c-0.5477324724197388,-1.2422242164611816 -4.041745662689209,-1.1461808681488037 -4.734810829162598,-1.113690972328186 c-0.32933682203292847,0.01553176436573267 -0.5997955203056335,0.2657833695411682 -0.6403683423995972,0.5930598378181458 c-0.08590016514062881,0.6991671323776245 -0.12235227227210999,1.3125133514404297 -0.12235227227210999,2.050272226333618 c0,8.107818603515625 5.490161418914795,15.126195907592773 13.350502967834473,17.068300247192383 c0.3611135482788086,0.0899415984749794 0.728962779045105,-0.13186150789260864 0.8181911706924438,-0.49432218074798584 c0.0899415984749794,-0.3624606728553772 -0.13186150789260864,-0.728962779045105 -0.49432218074798584,-0.8181911706924438 C11.645645260810852,34.27189362049103 6.578804135322571,27.792449116706848 6.578804135322571,20.30883514881134 c0,-0.4692811667919159 0.016244957223534584,-0.8838049173355103 0.05206311121582985,-1.306411623954773 c1.144120454788208,-0.0013471429701894522 2.1158859729766846,0.1311483234167099 2.611555337905884,0.2826622724533081 c-0.7756373286247253,1.2110813856124878 -0.6904503703117371,3.5920374393463135 0.25762125849723816,4.684808254241943 c0.6795939803123474,0.7830862402915955 1.665544033050537,0.8154969215393066 2.6379435062408447,0.08590016514062881 c2.5980045795440674,-1.9482061862945557 3.8341269493103027,-4.5333733558654785 3.1491446495056152,-6.583645820617676 c-0.021633530035614967,-0.06696092337369919 -0.043267060071229935,-0.1298011839389801 0.08114554733037949,-0.24272343516349792 c0.35572493076324463,-0.32323503494262695 1.2611634731292725,-0.4598511755466461 1.938697099685669,-0.15959680080413818 c0.5004239678382874,0.2210899144411087 0.7438606023788452,0.6133462190628052 0.7438606023788452,1.1989572048187256 c0,1.5262336730957031 -0.30770325660705566,1.8521628379821777 -0.7337173819541931,2.302504777908325 c-0.31578612327575684,0.33472537994384766 -0.7093103528022766,0.750596284866333 -0.980482280254364,1.5641121864318848 c-0.6078783869743347,1.8264880180358887 0.36721527576446533,2.412019729614258 0.9500527381896973,2.7616426944732666 c0.15080074965953827,0.0899415984749794 0.2928054630756378,0.17512857913970947 0.3793396055698395,0.26166269183158875 c0.04936882480978966,0.04936882480978966 0.1054733619093895,0.10214512795209885 0.1670457124710083,0.15959680080413818 c0.5950409173965454,0.5558152794837952 1.701362133026123,1.5911341905593872 0.272519052028656,4.92555046081543 c-1.6202166080474854,3.78071665763855 2.557431697845459,6.416599750518799 4.341286659240723,7.542494297027588 c0.10816764831542969,0.06759487092494965 0.23329344391822815,0.1041262224316597 0.3611135482788086,0.1041262224316597 c9.694198608398438,0 17.581562042236328,-7.887362480163574 17.581562042236328,-17.581562042236328 C40.38939392566681,19.498725056648254 40.33329117298126,18.680453419685364 40.221715092659,17.875813603401184 z" id="svg_6" fill="#ffffff" fill-opacity="1"/>
			<path d="M34.10806381702423,35.50262176990509 c-3.2837002277374268,2.4465699195861816 -7.191524028778076,3.7401442527770996 -11.300230026245117,3.7401442527770996 c-10.440040588378906,0 -18.93393325805664,-8.493260383605957 -18.93393325805664,-18.93393325805664 c0,-0.37323781847953796 -0.30294865369796753,-0.6761864423751831 -0.6761864423751831,-0.6761864423751831 s-0.6761864423751831,0.30294865369796753 -0.6761864423751831,0.6761864423751831 c0,10.959403991699219 8.73669719696045,19.910375595092773 19.610198974609375,20.269508361816406 v2.0455174446105957 c0,0.37323781847953796 0.30294865369796753,0.6761864423751831 0.6761864423751831,0.6761864423751831 s0.6761864423751831,-0.30294865369796753 0.6761864423751831,-0.6761864423751831 v-2.0556607246398926 c4.152607440948486,-0.13455578684806824 8.094267845153809,-1.4937437772750854 11.43209171295166,-3.980886459350586 c0.299541175365448,-0.22315025329589844 0.3611135482788086,-0.6464700698852539 0.13796328008174896,-0.9467244148254395 C34.830926060676575,35.34167969226837 34.408318638801575,35.279473423957825 34.10806381702423,35.50262176990509 z" id="svg_7" fill="#ffffff" fill-opacity="1"/>
			<path d="M23.325215458869934,30.1253844499588 c-0.843945324420929,0 -1.8338576555252075,0.9710522294044495 -2.1949710845947266,1.842653751373291 c-0.28194907307624817,0.680941104888916 -0.1981092393398285,1.3159209489822388 0.23059916496276855,1.7446292638778687 c0.4036673903465271,0.4036673903465271 1.0028289556503296,0.6356136798858643 1.643910527229309,0.6356136798858643 s1.240163803100586,-0.23194630444049835 1.6445444822311401,-0.6356136798858643 c0.44899478554725647,-0.44899478554725647 0.5585888028144836,-1.1090155839920044 0.3083372414112091,-1.8575514554977417 c-0.1683928519487381,-0.5058125257492065 -0.502405047416687,-1.0407074689865112 -0.8918878436088562,-1.430903434753418 C23.872231602668762,30.23157036304474 23.60922348499298,30.1253844499588 23.325215458869934,30.1253844499588 zM23.693062901496887,32.755879521369934 c-0.30025437474250793,0.30025437474250793 -1.0805670022964478,0.2920922636985779 -1.3727385997772217,0.007448907475918531 c-0.009430000558495522,-0.029082437977194786 -0.00879605021327734,-0.1981092393398285 0.17037396132946014,-0.49432218074798584 c0.23329344391822815,-0.38472816348075867 0.5626302361488342,-0.656613290309906 0.7411662936210632,-0.7532905340194702 c0.19200748205184937,0.22790487110614777 0.3584192097187042,0.5132614374160767 0.44289302825927734,0.7668412327766418 C23.74988281726837,32.506341099739075 23.7566157579422,32.692959904670715 23.693062901496887,32.755879521369934 z" id="svg_8" fill="#ffffff" fill-opacity="1"/>
		</g>
	</g>
</g><g id="svg_9" class="">
</g><g id="svg_10" class="">
</g><g id="svg_11" class="">
</g><g id="svg_12" class="">
</g><g id="svg_13" class="">
</g><g id="svg_14" class="">
</g><g id="svg_15" class="">
</g><g id="svg_16" class="">
</g><g id="svg_17" class="">
</g><g id="svg_18" class="">
</g><g id="svg_19" class="">
</g><g id="svg_20" class="">
</g><g id="svg_21" class="">
</g><g id="svg_22" class="">
</g><g id="svg_23" class="">
</g></g></svg>